# xmcd
#
# Track frame offsets:
# 150
# 21738
# 48764
#
# Disc length: 1022 seconds
#
# Revision: 1
# Processed by: cddbd v1.5.2PL0 Copyright (c) Steve Scherf et al.
# Submitted via: CedeCatalogueitor 2.6.0.6 http://personales.ya.com/cdcatalogueitor
#
DISCID=2003fc03
DTITLE=The Decemberists - 16 Military Wives
DYEAR=1900
DGENRE=
TTITLE0=16 Military Wives
TTITLE1=The Kingdom Of Spain
TTITLE2=16 Military Wives (video)
EXTD=
EXTT0=
EXTT1=
EXTT2=
PLAYORDER=
